HIERARCHY
ROOT hip
{
	OFFSET 0.000000 0.000000 0.000000
	CHANNELS 6 Xposition Yposition Zposition Xrotation Zrotation Yrotation 
	JOINT abdomen
	{
		OFFSET 0.000000 3.422050 0.000000
		CHANNELS 3 Xrotation Zrotation Yrotation 
		JOINT chest
		{
			OFFSET 0.000000 8.486693 -0.684411
			CHANNELS 3 Xrotation Zrotation Yrotation 
			JOINT neck
			{
				OFFSET 0.000000 10.266162 -0.273764
				CHANNELS 3 Xrotation Zrotation Yrotation 
				JOINT head
				{
					OFFSET 0.000000 3.148285 0.000000
					CHANNELS 3 Xrotation Zrotation Yrotation 
					End Site
					{
						OFFSET 0.000000 3.148289 0.000000
					}
				}
			}
			JOINT lCollar
			{
				OFFSET 3.422053 6.707223 -0.821293
				CHANNELS 3 Yrotation Zrotation Xrotation 
				JOINT lShldr
				{
					OFFSET 3.285171 0.000000 0.000000
					CHANNELS 3 Zrotation Yrotation Xrotation 
					JOINT lForeArm
					{
						OFFSET 10.129278 0.000000 0.000000
						CHANNELS 3 Yrotation Zrotation Xrotation 
						JOINT lHand
						{
							OFFSET 8.486692 0.000000 0.000000
							CHANNELS 3 Zrotation Yrotation Xrotation 
							End Site
							{
								OFFSET 4.106464 0.000000 0.000000
							}
						}
					}
				}
			}
			JOINT rCollar
			{
				OFFSET -3.558935 6.707223 -0.821293
				CHANNELS 3 Yrotation Zrotation Xrotation 
				JOINT rShldr
				{
					OFFSET -3.148289 0.000000 0.000000
					CHANNELS 3 Zrotation Yrotation Xrotation 
					JOINT rForeArm
					{
						OFFSET -10.266159 0.000000 0.000000
						CHANNELS 3 Yrotation Zrotation Xrotation 
						JOINT rHand
						{
							OFFSET -8.349810 0.000000 0.000000
							CHANNELS 3 Zrotation Yrotation Xrotation 
							End Site
							{
								OFFSET -4.106464 0.000000 0.000000
							}
						}
					}
				}
			}
		}
	}
	JOINT lThigh
	{
		OFFSET 5.338403 -1.642589 1.368821
		CHANNELS 3 Xrotation Zrotation Yrotation 
		JOINT lShin
		{
			OFFSET -2.053232 -20.121670 0.000000
			CHANNELS 3 Xrotation Zrotation Yrotation 
			JOINT lFoot
			{
				OFFSET 0.000000 -19.300380 -1.231939
				CHANNELS 3 Xrotation Yrotation Zrotation 
				End Site
				{
					OFFSET 0.000000 -2.463878 4.653993
				}
			}
		}
	}
	JOINT rThigh
	{
		OFFSET -5.338403 -1.642589 1.368821
		CHANNELS 3 Xrotation Zrotation Yrotation 
		JOINT rShin
		{
			OFFSET 2.053232 -20.121670 0.000000
			CHANNELS 3 Xrotation Zrotation Yrotation 
			JOINT rFoot
			{
				OFFSET 0.000000 -19.300380 -1.231939
				CHANNELS 3 Xrotation Yrotation Zrotation 
				End Site
				{
					OFFSET 0.000000 -2.463878 4.653993
				}
			}
		}
	}
}
MOTION
Frames: 8
Frame Time: 0.099947
9.999443 34.838684 -39.388023 2.999769 -6.999762 111.998039 3.998284 4.997085 0.999400 9.997990 9.998402 -0.002413 17.997646 9.999015 -36.002522 -9.289496 4.998205 -0.001007 0.000000 0.000000 0.000000 -95.006790 -50.001049 2.002804 -130.001984 5.001027 -20.001692 24.997353 -12.001267 -0.003005 0.000000 0.000000 0.000000 77.325142 56.018913 -0.164513 94.155121 -0.000001 0.000001 -4.104879 -4.544943 -1.919681 -12.002582 -7.000328 -0.001224 32.000034 4.997984 -12.001928 24.999689 -11.001664 -0.002333 -27.704231 -16.701298 -23.609764 97.380890 1.490895 0.923998 17.711782 4.997499 -0.001180 
9.999443 34.838684 -39.388023 2.999769 -6.999762 111.998039 3.998284 4.997085 0.999400 9.997990 9.998402 -0.002413 17.997646 9.999015 -36.002522 -9.155001 4.998189 -0.001020 0.000000 0.000000 0.000000 -95.006790 -50.001049 2.002804 -130.001984 5.001027 -20.001692 24.997353 -12.001267 -0.003005 0.000000 0.000000 0.000000 77.297508 54.539326 -0.156069 94.683792 -0.000001 0.000001 -4.096263 -4.579873 -1.772082 -12.002582 -7.000328 -0.001224 32.000034 4.997984 -12.001928 24.999689 -11.001664 -0.002333 -27.560495 -16.687790 -23.695745 97.521103 1.578671 0.921598 17.282625 4.997571 -0.001122 
9.999443 34.838684 -39.388023 2.999769 -6.999762 111.998039 3.998284 4.997085 0.999400 9.997990 9.998402 -0.002413 17.997646 9.999015 -36.002522 -9.020498 4.998174 -0.001033 0.000000 0.000000 0.000000 -95.006790 -50.001049 2.002804 -130.001984 5.001027 -20.001692 24.997353 -12.001267 -0.003005 0.000000 0.000000 0.000000 77.270515 53.060741 -0.146741 95.212143 -0.000001 0.000001 -4.087738 -4.614820 -1.624497 -12.002582 -7.000328 -0.001224 32.000034 4.997984 -12.001928 24.999689 -11.001664 -0.002333 -27.416805 -16.674082 -23.781681 97.661346 1.666456 0.919414 16.853474 4.997643 -0.001062 
9.999443 34.838684 -39.388023 2.999769 -6.999762 111.998039 3.998284 4.997085 0.999400 9.997990 9.998402 -0.002413 17.997646 9.999015 -36.002522 -8.885989 4.998158 -0.001045 0.000000 0.000000 0.000000 -95.006790 -50.001049 2.002804 -130.001984 5.001027 -20.001692 24.997353 -12.001267 -0.003005 0.000000 0.000000 0.000000 77.244026 51.583626 -0.136610 95.740135 -0.000001 0.000001 -4.079305 -4.649786 -1.476927 -12.002582 -7.000328 -0.001224 32.000034 4.997984 -12.001928 24.999689 -11.001664 -0.002333 -27.273169 -16.660168 -23.867569 97.801575 1.754249 0.917444 16.424339 4.997714 -0.001003 
9.999443 34.838684 -39.388023 2.999769 -6.999762 111.998039 3.998284 4.997085 0.999400 9.997990 9.998402 -0.002413 17.997646 9.999015 -36.002522 -8.751477 4.998143 -0.001058 0.000000 0.000000 0.000000 -95.006790 -50.001049 2.002804 -130.001984 5.001027 -20.001692 24.997353 -12.001267 -0.003005 0.000000 0.000000 0.000000 77.217995 50.108482 -0.125744 96.267776 -0.000001 0.000001 -4.070962 -4.684769 -1.329373 -12.002582 -7.000328 -0.001224 32.000034 4.997984 -12.001928 24.999689 -11.001664 -0.002333 -27.129570 -16.646048 -23.953398 97.941826 1.842050 0.915689 15.995237 4.997786 -0.000942 
9.999443 34.838684 -39.388023 2.999769 -6.999762 111.998039 3.998284 4.997085 0.999400 9.997990 9.998402 -0.002413 17.997646 9.999015 -36.002522 -8.616958 4.998127 -0.001071 0.000000 0.000000 0.000000 -95.006790 -50.001049 2.002804 -130.001984 5.001027 -20.001692 24.997353 -12.001267 -0.003005 0.000000 0.000000 0.000000 77.192337 48.635792 -0.114209 96.795013 -0.000001 0.000001 -4.062710 -4.719769 -1.181834 -12.002582 -7.000328 -0.001224 32.000034 4.997984 -12.001928 24.999689 -11.001664 -0.002333 -26.986029 -16.631725 -24.039183 98.082092 1.929859 0.914149 15.566180 4.997857 -0.000882 
9.999443 34.838684 -39.388023 2.999769 -6.999762 111.998039 3.998284 4.997085 0.999400 9.997990 9.998402 -0.002413 17.997646 9.999015 -36.002522 -8.482436 4.998113 -0.001084 0.000000 0.000000 0.000000 -95.006790 -50.001049 2.002804 -130.001984 5.001027 -20.001692 24.997353 -12.001267 -0.003005 0.000000 0.000000 0.000000 77.167015 47.166016 -0.102043 97.321823 -0.000001 0.000001 -4.054549 -4.754784 -1.034313 -12.002582 -7.000328 -0.001224 32.000034 4.997984 -12.001928 24.999689 -11.001664 -0.002333 -26.842531 -16.617199 -24.124910 98.222359 2.017673 0.912824 15.137173 4.997926 -0.000820 
9.999443 34.838684 -39.388023 2.999769 -6.999762 111.998039 3.998284 4.997085 0.999400 9.997990 9.998402 -0.002413 17.997646 9.999015 -36.002522 -8.347910 4.998097 -0.001097 0.000000 0.000000 0.000000 -95.006790 -50.001049 2.002804 -130.001984 5.001027 -20.001692 24.997353 -12.001267 -0.003005 0.000000 0.000000 0.000000 77.141998 45.699677 -0.089315 97.848213 -0.000001 0.000001 -4.046479 -4.789817 -0.886808 -12.002582 -7.000328 -0.001224 32.000034 4.997984 -12.001928 24.999689 -11.001664 -0.002333 -26.699083 -16.602465 -24.210581 98.362617 2.105492 0.911714 14.708237 4.997996 -0.000759 
